<svg xmlns="http://www.w3.org/2000/svg" version="1.1" xmlns:xlink="http://www.w3.org/1999/xlink" xmlns:svgjs="http://svgjs.dev/svgjs" viewBox="0 0 800 800"><defs><linearGradient x1="50%" y1="0%" x2="50%" y2="100%" id="ffflurry-grad" gradientTransform="rotate(270)"><stop stop-color="hsl(238, 82%, 13%)" stop-opacity="1" offset="0%"></stop><stop stop-color="hsl(1.4, 100%, 67%)" stop-opacity="1" offset="45%"></stop><stop stop-color="hsl(167, 52%, 78%)" stop-opacity="1" offset="100%"></stop></linearGradient></defs><rect width="100%" height="100%" fill="hsl(238, 82%, 13%)"></rect><g fill="url(#ffflurry-grad)"><rect width="253" height="1" x="348.5" y="20.5" rx="0.5" transform="rotate(74, 475, 21)" opacity="0.39"></rect><rect width="361" height="1" x="174.5" y="422.5" rx="0.5" transform="rotate(74, 355, 423)" opacity="0.92"></rect><rect width="89" height="1" x="712.5" y="564.5" rx="0.5" transform="rotate(74, 757, 565)" opacity="0.78"></rect><rect width="350" height="1" x="597" y="438.5" rx="0.5" transform="rotate(74, 772, 439)" opacity="0.98"></rect><rect width="159" height="1" x="475.5" y="209.5" rx="0.5" transform="rotate(74, 555, 210)" opacity="0.99"></rect><rect width="437" height="1" x="461.5" y="519.5" rx="0.5" transform="rotate(74, 680, 520)" opacity="0.52"></rect><rect width="100" height="1" x="715" y="772.5" rx="0.5" transform="rotate(74, 765, 773)" opacity="0.97"></rect><rect width="85" height="1" x="181.5" y="781.5" rx="0.5" transform="rotate(74, 224, 782)" opacity="0.60"></rect><rect width="485" height="1" x="279.5" y="42.5" rx="0.5" transform="rotate(74, 522, 43)" opacity="0.69"></rect><rect width="387" height="1" x="524.5" y="426.5" rx="0.5" transform="rotate(74, 718, 427)" opacity="0.19"></rect><rect width="284" height="1" x="429" y="314.5" rx="0.5" transform="rotate(74, 571, 315)" opacity="0.65"></rect><rect width="453" height="1" x="-184.5" y="327.5" rx="0.5" transform="rotate(74, 42, 328)" opacity="0.49"></rect><rect width="93" height="1" x="223.5" y="660.5" rx="0.5" transform="rotate(74, 270, 661)" opacity="0.73"></rect><rect width="144" height="1" x="701" y="239.5" rx="0.5" transform="rotate(74, 773, 240)" opacity="0.48"></rect><rect width="512" height="1" x="166" y="311.5" rx="0.5" transform="rotate(74, 422, 312)" opacity="0.95"></rect><rect width="41" height="1" x="469.5" y="450.5" rx="0.5" transform="rotate(74, 490, 451)" opacity="0.86"></rect><rect width="333" height="1" x="300.5" y="165.5" rx="0.5" transform="rotate(74, 467, 166)" opacity="0.91"></rect><rect width="254" height="1" x="500" y="758.5" rx="0.5" transform="rotate(74, 627, 759)" opacity="0.79"></rect><rect width="451" height="1" x="267.5" y="360.5" rx="0.5" transform="rotate(74, 493, 361)" opacity="0.40"></rect><rect width="217" height="1" x="591.5" y="352.5" rx="0.5" transform="rotate(74, 700, 353)" opacity="0.90"></rect><rect width="103" height="1" x="519.5" y="250.5" rx="0.5" transform="rotate(74, 571, 251)" opacity="0.73"></rect><rect width="38" height="1" x="50" y="80.5" rx="0.5" transform="rotate(74, 69, 81)" opacity="0.53"></rect><rect width="471" height="1" x="22.5" y="61.5" rx="0.5" transform="rotate(74, 258, 62)" opacity="0.56"></rect><rect width="284" height="1" x="-122" y="96.5" rx="0.5" transform="rotate(74, 20, 97)" opacity="0.27"></rect><rect width="211" height="1" x="441.5" y="428.5" rx="0.5" transform="rotate(74, 547, 429)" opacity="0.80"></rect><rect width="152" height="1" x="690" y="703.5" rx="0.5" transform="rotate(74, 766, 704)" opacity="0.44"></rect><rect width="41" height="1" x="66.5" y="741.5" rx="0.5" transform="rotate(74, 87, 742)" opacity="0.99"></rect><rect width="496" height="1" x="245" y="634.5" rx="0.5" transform="rotate(74, 493, 635)" opacity="0.35"></rect><rect width="318" height="1" x="-31" y="97.5" rx="0.5" transform="rotate(74, 128, 98)" opacity="0.07"></rect><rect width="461" height="1" x="-40.5" y="267.5" rx="0.5" transform="rotate(74, 190, 268)" opacity="0.24"></rect><rect width="443" height="1" x="-189.5" y="198.5" rx="0.5" transform="rotate(74, 32, 199)" opacity="0.27"></rect><rect width="85" height="1" x="550.5" y="29.5" rx="0.5" transform="rotate(74, 593, 30)" opacity="0.11"></rect><rect width="202" height="1" x="568" y="296.5" rx="0.5" transform="rotate(74, 669, 297)" opacity="0.75"></rect><rect width="387" height="1" x="-165.5" y="710.5" rx="0.5" transform="rotate(74, 28, 711)" opacity="0.78"></rect><rect width="109" height="1" x="94.5" y="771.5" rx="0.5" transform="rotate(74, 149, 772)" opacity="1.00"></rect><rect width="340" height="1" x="465" y="110.5" rx="0.5" transform="rotate(74, 635, 111)" opacity="0.36"></rect><rect width="331" height="1" x="592.5" y="165.5" rx="0.5" transform="rotate(74, 758, 166)" opacity="0.54"></rect><rect width="613" height="1" x="33.5" y="225.5" rx="0.5" transform="rotate(74, 340, 226)" opacity="0.31"></rect><rect width="388" height="1" x="331" y="691.5" rx="0.5" transform="rotate(74, 525, 692)" opacity="0.74"></rect><rect width="31" height="1" x="332.5" y="776.5" rx="0.5" transform="rotate(74, 348, 777)" opacity="0.39"></rect><rect width="518" height="1" x="199" y="718.5" rx="0.5" transform="rotate(74, 458, 719)" opacity="0.11"></rect><rect width="104" height="1" x="456" y="307.5" rx="0.5" transform="rotate(74, 508, 308)" opacity="0.91"></rect><rect width="28" height="1" x="307" y="731.5" rx="0.5" transform="rotate(74, 321, 732)" opacity="0.77"></rect><rect width="192" height="1" x="69" y="703.5" rx="0.5" transform="rotate(74, 165, 704)" opacity="0.29"></rect><rect width="82" height="1" x="385" y="45.5" rx="0.5" transform="rotate(74, 426, 46)" opacity="0.11"></rect><rect width="93" height="1" x="146.5" y="630.5" rx="0.5" transform="rotate(74, 193, 631)" opacity="0.41"></rect><rect width="345" height="1" x="413.5" y="708.5" rx="0.5" transform="rotate(74, 586, 709)" opacity="0.33"></rect><rect width="85" height="1" x="459.5" y="107.5" rx="0.5" transform="rotate(74, 502, 108)" opacity="0.22"></rect><rect width="238" height="1" x="406" y="170.5" rx="0.5" transform="rotate(74, 525, 171)" opacity="0.53"></rect><rect width="573" height="1" x="144.5" y="224.5" rx="0.5" transform="rotate(74, 431, 225)" opacity="0.12"></rect><rect width="516" height="1" x="-194" y="535.5" rx="0.5" transform="rotate(74, 64, 536)" opacity="0.71"></rect><rect width="198" height="1" x="27" y="31.5" rx="0.5" transform="rotate(74, 126, 32)" opacity="0.23"></rect><rect width="453" height="1" x="52.5" y="380.5" rx="0.5" transform="rotate(74, 279, 381)" opacity="0.36"></rect><rect width="262" height="1" x="71" y="197.5" rx="0.5" transform="rotate(74, 202, 198)" opacity="0.08"></rect><rect width="461" height="1" x="-45.5" y="536.5" rx="0.5" transform="rotate(74, 185, 537)" opacity="0.55"></rect><rect width="166" height="1" x="337" y="119.5" rx="0.5" transform="rotate(74, 420, 120)" opacity="0.41"></rect><rect width="434" height="1" x="166" y="581.5" rx="0.5" transform="rotate(74, 383, 582)" opacity="0.51"></rect><rect width="360" height="1" x="479" y="433.5" rx="0.5" transform="rotate(74, 659, 434)" opacity="0.36"></rect><rect width="243" height="1" x="631.5" y="91.5" rx="0.5" transform="rotate(74, 753, 92)" opacity="0.67"></rect><rect width="261" height="1" x="515.5" y="635.5" rx="0.5" transform="rotate(74, 646, 636)" opacity="0.23"></rect><rect width="142" height="1" x="256" y="328.5" rx="0.5" transform="rotate(74, 327, 329)" opacity="0.42"></rect><rect width="93" height="1" x="242.5" y="444.5" rx="0.5" transform="rotate(74, 289, 445)" opacity="0.13"></rect><rect width="96" height="1" x="563" y="357.5" rx="0.5" transform="rotate(74, 611, 358)" opacity="0.60"></rect><rect width="166" height="1" x="421" y="549.5" rx="0.5" transform="rotate(74, 504, 550)" opacity="0.55"></rect><rect width="213" height="1" x="176.5" y="767.5" rx="0.5" transform="rotate(74, 283, 768)" opacity="0.15"></rect><rect width="47" height="1" x="571.5" y="161.5" rx="0.5" transform="rotate(74, 595, 162)" opacity="0.86"></rect><rect width="290" height="1" x="587" y="26.5" rx="0.5" transform="rotate(74, 732, 27)" opacity="0.93"></rect><rect width="139" height="1" x="258.5" y="617.5" rx="0.5" transform="rotate(74, 328, 618)" opacity="0.35"></rect><rect width="77" height="1" x="366.5" y="657.5" rx="0.5" transform="rotate(74, 405, 658)" opacity="0.75"></rect><rect width="193" height="1" x="508.5" y="435.5" rx="0.5" transform="rotate(74, 605, 436)" opacity="1.00"></rect><rect width="484" height="1" x="453" y="748.5" rx="0.5" transform="rotate(74, 695, 749)" opacity="0.39"></rect><rect width="262" height="1" x="247" y="354.5" rx="0.5" transform="rotate(74, 378, 355)" opacity="0.85"></rect><rect width="572" height="1" x="-77" y="428.5" rx="0.5" transform="rotate(74, 209, 429)" opacity="0.43"></rect><rect width="303" height="1" x="500.5" y="227.5" rx="0.5" transform="rotate(74, 652, 228)" opacity="0.75"></rect><rect width="193" height="1" x="517.5" y="258.5" rx="0.5" transform="rotate(74, 614, 259)" opacity="0.37"></rect><rect width="178" height="1" x="477" y="95.5" rx="0.5" transform="rotate(74, 566, 96)" opacity="0.23"></rect><rect width="391" height="1" x="382.5" y="604.5" rx="0.5" transform="rotate(74, 578, 605)" opacity="0.89"></rect><rect width="394" height="1" x="-154" y="25.5" rx="0.5" transform="rotate(74, 43, 26)" opacity="0.84"></rect><rect width="550" height="1" x="-145" y="451.5" rx="0.5" transform="rotate(74, 130, 452)" opacity="0.09"></rect><rect width="288" height="1" x="439" y="522.5" rx="0.5" transform="rotate(74, 583, 523)" opacity="0.46"></rect><rect width="144" height="1" x="270" y="132.5" rx="0.5" transform="rotate(74, 342, 133)" opacity="0.83"></rect><rect width="315" height="1" x="361.5" y="770.5" rx="0.5" transform="rotate(74, 519, 771)" opacity="0.95"></rect><rect width="411" height="1" x="558.5" y="319.5" rx="0.5" transform="rotate(74, 764, 320)" opacity="0.52"></rect><rect width="139" height="1" x="7.5" y="134.5" rx="0.5" transform="rotate(74, 77, 135)" opacity="0.96"></rect><rect width="479" height="1" x="43.5" y="280.5" rx="0.5" transform="rotate(74, 283, 281)" opacity="0.88"></rect><rect width="358" height="1" x="230" y="498.5" rx="0.5" transform="rotate(74, 409, 499)" opacity="0.96"></rect><rect width="181" height="1" x="142.5" y="741.5" rx="0.5" transform="rotate(74, 233, 742)" opacity="0.83"></rect><rect width="428" height="1" x="49" y="576.5" rx="0.5" transform="rotate(74, 263, 577)" opacity="0.13"></rect><rect width="178" height="1" x="-49" y="437.5" rx="0.5" transform="rotate(74, 40, 438)" opacity="0.82"></rect><rect width="337" height="1" x="170.5" y="524.5" rx="0.5" transform="rotate(74, 339, 525)" opacity="0.34"></rect><rect width="575" height="1" x="-156.5" y="356.5" rx="0.5" transform="rotate(74, 131, 357)" opacity="0.31"></rect><rect width="241" height="1" x="306.5" y="426.5" rx="0.5" transform="rotate(74, 427, 427)" opacity="0.94"></rect><rect width="232" height="1" x="558" y="160.5" rx="0.5" transform="rotate(74, 674, 161)" opacity="0.50"></rect><rect width="84" height="1" x="681" y="649.5" rx="0.5" transform="rotate(74, 723, 650)" opacity="0.60"></rect><rect width="588" height="1" x="48" y="40.5" rx="0.5" transform="rotate(74, 342, 41)" opacity="0.87"></rect><rect width="338" height="1" x="48" y="336.5" rx="0.5" transform="rotate(74, 217, 337)" opacity="0.88"></rect><rect width="359" height="1" x="226.5" y="754.5" rx="0.5" transform="rotate(74, 406, 755)" opacity="0.15"></rect><rect width="150" height="1" x="109" y="107.5" rx="0.5" transform="rotate(74, 184, 108)" opacity="0.48"></rect><rect width="399" height="1" x="-105.5" y="255.5" rx="0.5" transform="rotate(74, 94, 256)" opacity="0.80"></rect><rect width="226" height="1" x="162" y="500.5" rx="0.5" transform="rotate(74, 275, 501)" opacity="0.29"></rect><rect width="124" height="1" x="652" y="234.5" rx="0.5" transform="rotate(74, 714, 235)" opacity="0.53"></rect><rect width="314" height="1" x="350" y="256.5" rx="0.5" transform="rotate(74, 507, 257)" opacity="0.54"></rect><rect width="344" height="1" x="30" y="27.5" rx="0.5" transform="rotate(74, 202, 28)" opacity="0.84"></rect><rect width="110" height="1" x="275" y="684.5" rx="0.5" transform="rotate(74, 330, 685)" opacity="0.23"></rect><rect width="77" height="1" x="192.5" y="697.5" rx="0.5" transform="rotate(74, 231, 698)" opacity="0.68"></rect><rect width="296" height="1" x="296" y="565.5" rx="0.5" transform="rotate(74, 444, 566)" opacity="0.42"></rect><rect width="351" height="1" x="87.5" y="156.5" rx="0.5" transform="rotate(74, 263, 157)" opacity="0.28"></rect><rect width="448" height="1" x="433" y="56.5" rx="0.5" transform="rotate(74, 657, 57)" opacity="0.64"></rect><rect width="255" height="1" x="-1.5" y="178.5" rx="0.5" transform="rotate(74, 126, 179)" opacity="0.54"></rect><rect width="115" height="1" x="26.5" y="620.5" rx="0.5" transform="rotate(74, 84, 621)" opacity="0.52"></rect></g></svg>